<?xml version="1.0" encoding="UTF-8" standalone="no"?>
<svg
  xmlns:dc="http://purl.org/dc/elements/1.1/"
  xmlns:cc="http://creativecommons.org/ns#"
  xmlns:rdf="http://www.w3.org/1999/02/22-rdf-syntax-ns#"
  xmlns:svg="http://www.w3.org/2000/svg"
  xmlns="http://www.w3.org/2000/svg"
  viewBox="0 0 723.60267 82.375061"
  height="82.375061"
  width="723.60266"
  xml:space="preserve"
  id="svg2"
  version="1.1"><metadata
     id="metadata8"><rdf:RDF><cc:Work
         rdf:about=""><dc:format>image/svg+xml</dc:format><dc:type
  rdf:resource="http://purl.org/dc/dcmitype/StillImage"/><dc:title></dc:title></cc:Work></rdf:RDF></metadata>
  <defs
    id="defs6"/>
  <g
    transform="matrix(1.3333333,0,0,-1.3333333,0,82.375065)"
    id="g10"><g
       transform="scale(0.1)"
       id="g12"><path
         id="path14"
         style="fill:#820b27;fill-opacity:1;fill-rule:nonzero;stroke:none"
         d="m 2204.91,518.918 v -4.27 c -8.84,-0.597 -14.55,-2.058 -17.18,-4.425 -2.62,-2.352 -3.95,-7.762 -3.95,-16.231 v -73.523 c 0,-12.024 1.65,-21.418 4.95,-28.156 6.15,-12.274 17.77,-18.395 34.93,-18.395 18.78,0 31.38,6.266 37.8,18.855 3.59,7.012 5.4,17.879 5.4,32.528 v 59.816 c 0,12.528 -1.49,20.332 -4.49,23.535 -2.99,3.164 -8.67,5.164 -17.06,5.996 v 4.27 h 53.21 v -4.27 c -8.91,-0.976 -14.72,-3.117 -17.47,-6.457 -2.74,-3.308 -4.09,-10.996 -4.09,-23.074 v -59.816 c 0,-15.848 -2.41,-28.231 -7.31,-37.129 -8.96,-16.414 -26.02,-24.609 -51.17,-24.609 -24.85,0 -41.77,8.109 -50.73,24.257 -4.86,8.692 -7.3,20.141 -7.3,34.348 v 71.824 c 0,8.399 -1.29,13.762 -3.86,16.137 -2.6,2.34 -8.23,3.855 -16.89,4.519 v 4.27 h 65.21" /><path
    id="path16"
    style="fill:#820b27;fill-opacity:1;fill-rule:nonzero;stroke:none"
    d="m 2304.51,370.066 c 7.19,0.735 11.82,2.356 13.84,4.864 2.04,2.519 3.07,8.351 3.07,17.539 v 76.633 l -2.38,2.793 c -2.54,3.015 -4.71,4.851 -6.51,5.574 -1.77,0.695 -4.45,1.125 -8.02,1.23 v 3.223 h 29.67 l 67.16,-83.231 v 57.821 c 0,9.484 -1.41,15.676 -4.24,18.554 -1.89,1.856 -6.01,3.059 -12.41,3.633 v 3.223 h 40.86 v -3.223 c -6.62,-0.683 -11.04,-2.304 -13.25,-4.832 -2.21,-2.551 -3.33,-8.398 -3.33,-17.512 v -91.582 h -2.96 l -76.97,95.422 v -67.734 c 0,-9.5 1.4,-15.703 4.17,-18.582 1.81,-1.887 5.87,-3.149 12.16,-3.813 v -3.242 h -40.86 v 3.242"/><path
    id="path18"
    style="fill:#820b27;fill-opacity:1;fill-rule:nonzero;stroke:none"
    d="m 2430.99,370.066 c 7.07,0.489 11.67,1.563 13.76,3.157 2.09,1.601 3.13,5.75 3.13,12.468 v 77.383 c 0,6.399 -1.04,10.528 -3.13,12.356 -2.09,1.836 -6.69,2.929 -13.76,3.269 v 3.223 h 51.48 v -3.223 c -7.08,-0.34 -11.67,-1.433 -13.76,-3.269 -2.1,-1.828 -3.14,-5.957 -3.14,-12.356 v -77.383 c 0,-6.718 1.04,-10.867 3.14,-12.468 2.09,-1.594 6.68,-2.668 13.76,-3.157 v -3.242 h -51.48 v 3.242"/><path
    id="path20"
    style="fill:#820b27;fill-opacity:1;fill-rule:nonzero;stroke:none"
    d="m 2535.22,481.922 v -2.988 c -4.37,-0.028 -7.33,-0.313 -8.91,-0.84 -2.77,-0.926 -4.15,-2.801 -4.15,-5.614 0,-1.425 0.5,-3.449 1.47,-6.046 1,-2.586 2.84,-6.891 5.54,-12.871 l 27.24,-60.555 24.72,65.566 c 1.09,2.879 1.91,5.332 2.47,7.364 0.59,2 0.86,3.621 0.86,4.91 0,3.379 -1.45,5.695 -4.33,6.906 -1.68,0.672 -4.48,1.094 -8.37,1.18 v 2.988 h 35.57 v -2.988 c -3.69,-0.508 -6.4,-1.473 -8.16,-2.95 -2.66,-2.207 -5.28,-6.66 -7.91,-13.347 l -38.51,-97.864 h -2.62 l -43,95.625 c -3.64,8.137 -6.53,13.165 -8.69,15.149 -2.2,1.973 -5.38,3.125 -9.57,3.387 v 2.988 h 46.35"/><path
    id="path22"
    style="fill:#820b27;fill-opacity:1;fill-rule:nonzero;stroke:none"
    d="m 2613.69,370.066 c 6.42,0.664 10.55,1.809 12.47,3.399 1.88,1.625 2.82,5.695 2.82,12.226 v 77.383 c 0,6.164 -0.94,10.168 -2.79,12.102 -1.89,1.902 -6.05,3.047 -12.5,3.523 v 3.223 h 92.44 l 0.58,-24.871 h -4.41 c -1.48,7.644 -3.68,12.617 -6.63,14.851 -2.95,2.286 -9.52,3.391 -19.72,3.391 h -23.66 c -2.56,0 -4.15,-0.402 -4.75,-1.223 -0.58,-0.84 -0.87,-2.359 -0.87,-4.629 v -38.816 h 26.84 c 7.42,0 12.14,1.102 14.17,3.301 2.06,2.187 3.68,6.64 4.92,13.359 h 4.07 v -40.176 h -4.07 c -1.3,6.719 -2.95,11.192 -5.01,13.36 -2.03,2.176 -6.75,3.269 -14.08,3.269 h -26.84 v -43.066 c 0,-3.445 1.09,-5.496 3.27,-6.113 2.17,-0.614 8.72,-0.926 19.62,-0.926 11.78,0 20.48,1.277 26.11,3.847 5.59,2.586 10.66,8.817 15.12,18.739 h 4.86 l -7.93,-29.395 h -94.03 v 3.242"/><path
    id="path24"
    style="fill:#820b27;fill-opacity:1;fill-rule:nonzero;stroke:none"
    d="m 2779.42,430.371 c 9.22,3.77 13.85,10.906 13.85,21.367 0,10.047 -4.14,16.942 -12.39,20.598 -4.41,1.969 -10.31,2.957 -17.58,2.957 -4.96,0 -7.96,-0.344 -9.05,-1.066 -1.12,-0.68 -1.68,-2.364 -1.68,-4.961 v -42.813 c 12.52,0.449 21.45,1.77 26.85,3.918 z m -59.47,-60.305 c 6.68,0.606 10.87,1.899 12.5,3.879 1.65,1.981 2.47,6.571 2.47,13.789 v 75.34 c 0,6.106 -0.91,10.11 -2.77,11.992 -1.83,1.926 -5.9,3.125 -12.2,3.633 v 3.223 h 48.18 c 10.02,0 18.36,-1.277 25.05,-3.817 12.69,-4.804 19.03,-13.64 19.03,-26.535 0,-8.66 -2.8,-15.312 -8.46,-19.929 -5.62,-4.661 -13.29,-7.707 -22.98,-9.172 l 35.86,-44.141 c 2.21,-2.703 4.42,-4.687 6.63,-5.918 2.18,-1.211 5.04,-2.019 8.48,-2.344 v -3.242 h -28.02 l -43.49,53.606 -7.66,-0.43 v -34.27 c 0,-6.453 1,-10.527 2.94,-12.246 1.96,-1.726 6.22,-2.871 12.8,-3.418 v -3.242 h -48.36 v 3.242"/><path
    id="path26"
    style="fill:#820b27;fill-opacity:1;fill-rule:nonzero;stroke:none"
    d="m 2845.24,401.816 c 2.95,-7.804 6.39,-14.043 10.38,-18.683 6.87,-8.086 15.44,-12.137 25.69,-12.137 5.54,0 10.32,1.746 14.38,5.262 4.04,3.515 6.04,8.41 6.04,14.687 0,5.664 -2.03,10.606 -6.1,14.785 -2.65,2.657 -8.25,6.653 -16.8,11.973 l -14.81,9.262 c -4.48,2.848 -8.05,5.703 -10.71,8.59 -4.92,5.48 -7.39,11.554 -7.39,18.164 0,8.789 2.92,16.094 8.75,21.914 5.84,5.832 13.56,8.75 23.2,8.75 3.97,0 8.72,-0.985 14.31,-2.918 5.58,-1.945 8.75,-2.93 9.55,-2.93 2.15,0 3.65,0.488 4.49,1.512 0.82,1.039 1.43,2.453 1.88,4.336 h 3.57 l 3.82,-37.039 h -4.15 c -2.83,11.172 -7.4,18.945 -13.64,23.371 -6.25,4.414 -12.44,6.629 -18.53,6.629 -4.78,0 -8.94,-1.387 -12.48,-4.199 -3.53,-2.805 -5.3,-6.711 -5.3,-11.692 0,-4.473 1.36,-8.281 4.06,-11.453 2.72,-3.242 6.94,-6.602 12.65,-10.129 l 15.26,-9.433 c 9.58,-5.879 16.33,-11.297 20.25,-16.219 3.86,-4.973 5.8,-10.871 5.8,-17.668 0,-9.11 -3.45,-16.715 -10.34,-22.852 -6.87,-6.109 -15.65,-9.179 -26.34,-9.179 -5.4,0 -11.03,1.035 -16.89,3.07 -5.87,2.047 -9.22,3.062 -10.04,3.062 -2.05,0 -3.42,-0.605 -4.13,-1.875 -0.71,-1.23 -1.18,-2.578 -1.42,-4.004 h -3.8 l -5.19,37.043 h 3.98"/><path
    id="path28"
    style="fill:#820b27;fill-opacity:1;fill-rule:nonzero;stroke:none"
    d="m 2933.62,370.066 c 7.04,0.489 11.64,1.563 13.73,3.157 2.09,1.601 3.15,5.75 3.15,12.468 v 77.383 c 0,6.399 -1.06,10.528 -3.15,12.356 -2.09,1.836 -6.69,2.929 -13.73,3.269 v 3.223 h 51.44 v -3.223 c -7.07,-0.34 -11.67,-1.433 -13.76,-3.269 -2.09,-1.828 -3.15,-5.957 -3.15,-12.356 v -77.383 c 0,-6.718 1.06,-10.867 3.15,-12.468 2.09,-1.594 6.69,-2.668 13.76,-3.157 v -3.242 h -51.44 v 3.242"/><path
    id="path30"
    style="fill:#820b27;fill-opacity:1;fill-rule:nonzero;stroke:none"
    d="m 2992.13,481.922 h 98.37 l 0.91,-29.551 h -4.15 c -2.03,9.301 -4.63,15.332 -7.78,18.106 -3.16,2.824 -9.76,4.238 -19.84,4.238 h -9.65 v -89.024 c 0,-6.718 1.02,-10.867 3.12,-12.468 2.09,-1.594 6.68,-2.668 13.76,-3.157 v -3.242 h -50.71 v 3.242 c 7.36,0.547 11.96,1.75 13.76,3.633 1.82,1.856 2.7,6.535 2.7,14.035 v 86.981 h -9.74 c -9.64,0 -16.19,-1.414 -19.66,-4.18 -3.51,-2.773 -6.14,-8.808 -7.87,-18.164 h -4.24 l 1.02,29.551"/><path
    id="path32"
    style="fill:#820b27;fill-opacity:1;fill-rule:nonzero;stroke:none"
    d="m 3147.49,481.922 v -3.223 c -4.1,0.117 -7.16,-0.176 -9.19,-0.918 -2.04,-0.73 -3.04,-2.343 -3.04,-4.773 0,-0.735 0.14,-1.653 0.5,-2.754 0.36,-1.106 1.09,-2.578 2.3,-4.375 l 25.58,-37.539 24.99,38.125 c 1.02,1.648 1.68,3.008 2,4.07 0.32,1.086 0.44,1.887 0.44,2.387 0,2.508 -1.33,4.137 -3.98,4.918 -1.56,0.519 -4.3,0.801 -8.16,0.859 v 3.223 h 38.02 v -3.223 c -3.52,-0.164 -6.6,-1.211 -9.41,-3.144 -4.3,-3.008 -9.13,-8.582 -14.5,-16.715 l -25.69,-39.25 v -33.828 c 0,-6.75 1.09,-10.949 3.27,-12.617 2.18,-1.653 7.07,-2.696 14.68,-3.079 v -3.242 h -53.11 v 3.242 c 7.87,0.43 12.74,1.633 14.65,3.52 1.88,1.891 2.83,6.629 2.83,14.176 v 30.207 l -22.75,33.379 c -7.86,11.511 -13.38,18.875 -16.56,22.117 -3.18,3.254 -7.05,5.019 -11.55,5.234 v 3.223 h 48.68"/><path
    id="path34"
    style="fill:#820b27;fill-opacity:1;fill-rule:nonzero;stroke:none"
    d="m 3313.77,383.77 c 7.19,-8.743 16.03,-13.118 26.56,-13.118 10.22,0 19,4.258 26.3,12.774 7.28,8.515 10.91,22.16 10.91,40.918 0,18.965 -3.69,32.668 -11.02,41.094 -7.39,8.457 -16.12,12.667 -26.19,12.667 -10.47,0 -19.28,-4.386 -26.5,-13.117 -7.24,-8.758 -10.88,-22.304 -10.88,-40.644 0,-18.309 3.64,-31.805 10.82,-40.574 z m -12.99,85.234 c 10.69,10.254 23.83,15.379 39.49,15.379 15.67,0 28.87,-5.156 39.57,-15.438 11.61,-11.172 17.41,-26.035 17.41,-44.601 0,-18.875 -6.01,-33.875 -18,-45.028 -10.76,-9.972 -23.78,-14.953 -38.98,-14.953 -16.3,0 -29.85,5.528 -40.62,16.563 -10.93,11.281 -16.4,25.746 -16.4,43.418 0,18.566 5.86,33.457 17.53,44.66"/><path
    id="path36"
    style="fill:#820b27;fill-opacity:1;fill-rule:nonzero;stroke:none"
    d="m 3405.68,370.066 c 6.83,0.727 11.08,1.977 12.79,3.75 1.65,1.778 2.47,6.418 2.47,13.918 v 75.34 c 0,6.164 -0.91,10.168 -2.79,12.102 -1.9,1.902 -6.05,3.047 -12.47,3.523 v 3.223 h 92.64 l 0.62,-24.871 h -4.85 c -1.19,7.937 -3.42,12.969 -6.72,15.078 -3.27,2.098 -9.76,3.164 -19.43,3.164 h -23.86 c -2.33,0 -3.83,-0.383 -4.49,-1.191 -0.64,-0.801 -0.96,-2.336 -0.96,-4.661 v -38.816 h 25.22 c 7.42,0 12.14,1.102 14.2,3.301 2.03,2.187 3.68,6.64 4.92,13.359 h 4.07 v -40.176 h -4.07 c -1.33,6.719 -2.98,11.192 -5.04,13.36 -2.03,2.176 -6.71,3.269 -14.08,3.269 h -25.22 v -38.047 c 0,-6.375 0.96,-10.437 2.91,-12.226 1.98,-1.766 6.22,-2.91 12.79,-3.399 v -3.242 h -48.65 v 3.242"/><path
    id="path38"
    style="fill:#820b27;fill-opacity:1;fill-rule:nonzero;stroke:none"
    d="m 3560.53,371.113 c 9.49,0.946 15.59,3.098 18.27,6.426 2.71,3.328 4.04,11.047 4.04,23.176 v 93.308 c 0,8.313 -1.3,13.7 -3.92,16.2 -2.63,2.519 -8.57,3.988 -17.83,4.425 v 4.27 h 45.29 l 52.8,-114.477 51.52,114.477 h 45.67 v -4.27 c -8.51,-0.597 -14.02,-2.148 -16.5,-4.628 -2.44,-2.5 -3.68,-7.864 -3.68,-15.997 V 391.824 c 0,-8.367 1.24,-13.73 3.68,-16.07 2.48,-2.375 7.99,-3.918 16.5,-4.641 v -4.289 h -64.3 v 4.289 c 9.28,0.723 15.06,2.383 17.33,4.961 2.29,2.598 3.45,8.739 3.45,18.469 v 103.191 l -58.88,-130.91 h -3.16 l -57.87,125.52 v -91.629 c 0,-12.57 1.86,-20.735 5.51,-24.594 2.39,-2.449 7.76,-4.141 16.07,-5.008 v -4.289 h -53.99 v 4.289"/><path
    id="path40"
    style="fill:#820b27;fill-opacity:1;fill-rule:nonzero;stroke:none"
    d="m 3765.12,370.066 c 7.1,0.489 11.7,1.563 13.76,3.157 2.09,1.601 3.13,5.75 3.13,12.468 v 77.383 c 0,6.399 -1.04,10.528 -3.13,12.356 -2.06,1.836 -6.66,2.929 -13.76,3.269 v 3.223 h 51.49 v -3.223 c -7.05,-0.34 -11.64,-1.433 -13.77,-3.269 -2.09,-1.828 -3.12,-5.957 -3.12,-12.356 v -77.383 c 0,-6.718 1.03,-10.867 3.12,-12.468 2.13,-1.594 6.72,-2.668 13.77,-3.157 v -3.242 h -51.49 v 3.242"/><path
    id="path42"
    style="fill:#820b27;fill-opacity:1;fill-rule:nonzero;stroke:none"
    d="m 3822.23,370.066 c 7.19,0.735 11.79,2.356 13.82,4.864 2.06,2.519 3.07,8.351 3.07,17.539 v 76.633 l -2.37,2.793 c -2.56,3.015 -4.73,4.851 -6.5,5.574 -1.8,0.695 -4.48,1.125 -8.02,1.23 v 3.223 h 29.67 l 67.13,-83.231 v 57.821 c 0,9.484 -1.39,15.676 -4.24,18.554 -1.86,1.856 -5.99,3.059 -12.38,3.633 v 3.223 h 40.84 v -3.223 c -6.62,-0.683 -11.02,-2.304 -13.23,-4.832 -2.24,-2.551 -3.33,-8.398 -3.33,-17.512 v -91.582 h -2.97 l -76.95,95.422 v -67.734 c 0,-9.5 1.39,-15.703 4.16,-18.582 1.8,-1.887 5.86,-3.149 12.14,-3.813 v -3.242 h -40.84 v 3.242"/><path
    id="path44"
    style="fill:#820b27;fill-opacity:1;fill-rule:nonzero;stroke:none"
    d="m 3947.85,370.066 c 7.18,0.735 11.81,2.356 13.84,4.864 2.05,2.519 3.04,8.351 3.04,17.539 v 76.633 l -2.35,2.793 c -2.57,3.015 -4.72,4.851 -6.52,5.574 -1.76,0.695 -4.45,1.125 -8.01,1.23 v 3.223 h 29.67 l 67.16,-83.231 v 57.821 c 0,9.484 -1.41,15.676 -4.25,18.554 -1.85,1.856 -6.01,3.059 -12.4,3.633 v 3.223 h 40.84 v -3.223 c -6.6,-0.683 -11.02,-2.304 -13.23,-4.832 -2.21,-2.551 -3.33,-8.398 -3.33,-17.512 v -91.582 h -2.95 l -76.96,95.422 v -67.734 c 0,-9.5 1.38,-15.703 4.15,-18.582 1.82,-1.887 5.87,-3.149 12.14,-3.813 v -3.242 h -40.84 v 3.242"/><path
    id="path46"
    style="fill:#820b27;fill-opacity:1;fill-rule:nonzero;stroke:none"
    d="m 4073.47,370.066 c 6.42,0.664 10.55,1.809 12.46,3.399 1.89,1.625 2.83,5.695 2.83,12.226 v 77.383 c 0,6.164 -0.94,10.168 -2.8,12.102 -1.85,1.902 -6.01,3.047 -12.49,3.523 v 3.223 h 92.43 l 0.6,-24.871 h -4.43 c -1.47,7.644 -3.68,12.617 -6.6,14.851 -2.98,2.286 -9.55,3.391 -19.74,3.391 h -23.67 c -2.58,0 -4.14,-0.402 -4.73,-1.223 -0.6,-0.84 -0.89,-2.359 -0.89,-4.629 v -38.816 h 26.82 c 7.45,0 12.16,1.102 14.2,3.301 2.07,2.187 3.69,6.64 4.92,13.359 h 4.1 v -40.176 h -4.1 c -1.29,6.719 -2.97,11.192 -5.01,13.36 -2.03,2.176 -6.75,3.269 -14.11,3.269 h -26.82 v -43.066 c 0,-3.445 1.06,-5.496 3.27,-6.113 2.18,-0.614 8.72,-0.926 19.6,-0.926 11.82,0 20.54,1.277 26.13,3.847 5.63,2.586 10.64,8.817 15.12,18.739 h 4.86 l -7.93,-29.395 h -94.02 v 3.242"/><path
    id="path48"
    style="fill:#820b27;fill-opacity:1;fill-rule:nonzero;stroke:none"
    d="m 4189.01,401.816 c 2.92,-7.804 6.37,-14.043 10.31,-18.683 6.9,-8.086 15.47,-12.137 25.72,-12.137 5.52,0 10.34,1.746 14.36,5.262 4.06,3.515 6.06,8.41 6.06,14.687 0,5.664 -2.03,10.606 -6.09,14.785 -2.66,2.657 -8.22,6.653 -16.77,11.973 l -14.85,9.262 c -4.45,2.848 -8.02,5.703 -10.7,8.59 -4.92,5.48 -7.37,11.554 -7.37,18.164 0,8.789 2.92,16.094 8.73,21.914 5.86,5.832 13.56,8.75 23.22,8.75 3.95,0 8.72,-0.985 14.32,-2.918 5.54,-1.945 8.75,-2.93 9.51,-2.93 2.16,0 3.67,0.488 4.49,1.512 0.8,1.039 1.44,2.453 1.91,4.336 h 3.56 l 3.81,-37.039 h -4.16 c -2.83,11.172 -7.36,18.945 -13.61,23.371 -6.28,4.414 -12.46,6.629 -18.59,6.629 -4.75,0 -8.9,-1.387 -12.41,-4.199 -3.53,-2.805 -5.33,-6.711 -5.33,-11.692 0,-4.473 1.35,-8.281 4.06,-11.453 2.72,-3.242 6.93,-6.602 12.64,-10.129 l 15.29,-9.433 c 9.55,-5.879 16.3,-11.297 20.22,-16.219 3.89,-4.973 5.81,-10.871 5.81,-17.668 0,-9.11 -3.42,-16.715 -10.31,-22.852 -6.87,-6.109 -15.69,-9.179 -26.41,-9.179 -5.33,0 -10.99,1.035 -16.83,3.07 -5.86,2.047 -9.22,3.062 -10.07,3.062 -2.04,0 -3.42,-0.605 -4.13,-1.875 -0.71,-1.23 -1.15,-2.578 -1.41,-4.004 h -3.8 l -5.19,37.043 h 4.01"/><path
    id="path50"
    style="fill:#820b27;fill-opacity:1;fill-rule:nonzero;stroke:none"
    d="m 4310.24,383.77 c 7.19,-8.743 16.02,-13.118 26.51,-13.118 10.27,0 19.05,4.258 26.32,12.774 7.31,8.515 10.93,22.16 10.93,40.918 0,18.965 -3.68,32.668 -11.05,41.094 -7.36,8.457 -16.12,12.667 -26.2,12.667 -10.43,0 -19.24,-4.386 -26.48,-13.117 -7.23,-8.758 -10.85,-22.304 -10.85,-40.644 0,-18.309 3.62,-31.805 10.82,-40.574 z m -13.03,85.234 c 10.69,10.254 23.9,15.379 39.51,15.379 15.69,0 28.89,-5.156 39.58,-15.438 11.62,-11.172 17.42,-26.035 17.42,-44.601 0,-18.875 -6.01,-33.875 -18.01,-45.028 -10.75,-9.972 -23.78,-14.953 -38.99,-14.953 -16.32,0 -29.84,5.528 -40.6,16.563 -10.96,11.281 -16.41,25.746 -16.41,43.418 0,18.566 5.86,33.457 17.5,44.66"/><path
    id="path52"
    style="fill:#820b27;fill-opacity:1;fill-rule:nonzero;stroke:none"
    d="m 4403.56,481.922 h 98.36 l 0.92,-29.551 h -4.13 c -2.07,9.301 -4.65,15.332 -7.78,18.106 -3.15,2.824 -9.75,4.238 -19.86,4.238 h -9.67 v -89.024 c 0,-6.718 1.04,-10.867 3.15,-12.468 2.09,-1.594 6.67,-2.668 13.76,-3.157 v -3.242 h -50.71 v 3.242 c 7.35,0.547 11.94,1.75 13.73,3.633 1.86,1.856 2.75,6.535 2.75,14.035 v 86.981 h -9.76 c -9.64,0 -16.2,-1.414 -19.65,-4.18 -3.51,-2.773 -6.13,-8.808 -7.87,-18.164 h -4.28 l 1.04,29.551"/><path
    id="path54"
    style="fill:#820b27;fill-opacity:1;fill-rule:nonzero;stroke:none"
    d="m 4570.05,411.512 -19.92,47.91 -20.04,-47.91 z m -74.91,-44.688 v 3.242 c 4.48,0.489 7.84,2.18 10.05,5.039 2.24,2.872 6.07,10.696 11.52,23.516 l 36.21,85.352 h 3.48 l 43.35,-98.633 c 2.89,-6.543 5.19,-10.574 6.92,-12.117 1.71,-1.551 4.63,-2.61 8.7,-3.157 v -3.242 h -44.23 v 3.242 c 5.09,0.43 8.37,0.989 9.81,1.633 1.51,0.653 2.24,2.246 2.24,4.774 0,0.863 -0.3,2.367 -0.85,4.492 -0.57,2.14 -1.39,4.394 -2.39,6.769 l -6.96,16.739 h -45.85 c -4.51,-11.399 -7.21,-18.352 -8.07,-20.852 -0.88,-2.519 -1.32,-4.492 -1.32,-5.965 0,-2.922 1.2,-4.953 3.53,-6.074 1.51,-0.676 4.24,-1.191 8.34,-1.516 v -3.242 h -34.48"/><path
    id="path56"
    style="fill:#820b27;fill-opacity:1;fill-rule:nonzero;stroke:none"
    d="m 4725.7,377.168 c 1.85,-1.191 5.62,-1.816 11.39,-1.816 17.95,0 32.75,3.566 44.33,10.671 17.79,10.93 26.69,29.629 26.69,56.075 0,23.574 -7.31,41.34 -21.98,53.242 -12.55,10.195 -29.2,15.273 -49.91,15.273 -5.19,0 -8.67,-0.566 -10.52,-1.679 -1.83,-1.141 -2.75,-3.614 -2.75,-7.43 V 384.559 c 0,-3.719 0.92,-6.2 2.75,-7.391 z m -46.33,-6.055 c 8.4,0.867 13.88,2.371 16.42,4.512 2.52,2.098 3.79,7.488 3.79,16.113 v 102.254 c 0,8.399 -1.24,13.77 -3.71,16.176 -2.44,2.391 -7.96,3.883 -16.5,4.48 v 4.27 h 61.97 c 20.89,0 38.55,-3.449 52.98,-10.316 26.06,-12.364 39.07,-34.414 39.07,-66.239 0,-11.437 -2.35,-22.304 -7.01,-32.648 -4.68,-10.34 -11.73,-19.051 -21.18,-26.168 -5.99,-4.496 -12.2,-7.883 -18.62,-10.227 -11.73,-4.328 -26.18,-6.496 -43.32,-6.496 h -63.89 v 4.289"/><path
    id="path58"
    style="fill:#820b27;fill-opacity:1;fill-rule:nonzero;stroke:none"
    d="m 4893.42,481.922 v -3.223 c -6.69,-0.476 -11.05,-1.562 -13,-3.359 -2,-1.785 -2.96,-5.867 -2.96,-12.266 V 407.43 c 0,-9.121 1.23,-16.219 3.74,-21.317 4.64,-9.289 13.43,-13.937 26.39,-13.937 14.21,0 23.78,4.765 28.62,14.289 2.74,5.301 4.1,13.523 4.1,24.621 v 45.269 c 0,9.465 -1.13,15.391 -3.42,17.805 -2.25,2.403 -6.54,3.914 -12.91,4.539 v 3.223 h 40.28 v -3.223 c -6.75,-0.738 -11.14,-2.39 -13.2,-4.883 -2.06,-2.519 -3.13,-8.347 -3.13,-17.461 v -45.269 c 0,-12.016 -1.82,-21.379 -5.5,-28.117 -6.78,-12.414 -19.72,-18.606 -38.75,-18.606 -18.77,0 -31.57,6.114 -38.37,18.36 -3.68,6.574 -5.54,15.207 -5.54,25.988 v 54.363 c 0,6.328 -0.98,10.391 -2.92,12.168 -1.94,1.809 -6.21,2.949 -12.78,3.457 v 3.223 h 49.35"/><path
    id="path60"
    style="fill:#820b27;fill-opacity:1;fill-rule:nonzero;stroke:none"
    d="m 4969.27,370.066 c 6.4,0.664 10.55,1.809 12.43,3.399 1.92,1.625 2.86,5.695 2.86,12.226 v 77.383 c 0,6.164 -0.94,10.168 -2.8,12.102 -1.88,1.902 -6.03,3.047 -12.49,3.523 v 3.223 h 49.09 v -3.223 c -6.39,-0.34 -10.69,-1.375 -12.88,-3.144 -2.15,-1.746 -3.24,-5.528 -3.24,-11.297 v -83.586 c 0,-1.934 0.3,-3.438 0.95,-4.551 0.67,-1.094 2.09,-1.797 4.3,-2.078 1.32,-0.164 2.68,-0.266 4.13,-0.344 1.47,-0.058 4.15,-0.066 8.13,-0.066 15.47,0 25.93,1.25 31.38,3.816 5.46,2.559 10.7,9.074 15.83,19.531 h 4.41 l -8.51,-30.156 h -93.59 v 3.242"/><path
    id="path62"
    style="fill:#820b27;fill-opacity:1;fill-rule:nonzero;stroke:none"
    d="m 5125.3,481.941 v -3.242 c -6.69,-0.476 -11.02,-1.562 -12.96,-3.359 -2.01,-1.785 -3.01,-5.867 -3.01,-12.266 V 407.43 c 0,-9.121 1.27,-16.219 3.74,-21.317 4.66,-9.289 13.47,-13.937 26.44,-13.937 14.2,0 23.75,4.765 28.61,14.289 2.7,5.32 4.09,13.523 4.09,24.621 v 45.269 c 0,9.465 -1.15,15.391 -3.42,17.805 -2.26,2.403 -6.54,3.914 -12.91,4.539 v 3.242 h 40.26 v -3.242 c -6.72,-0.738 -11.14,-2.39 -13.21,-4.883 -2.06,-2.519 -3.08,-8.347 -3.08,-17.461 v -45.269 c 0,-12.016 -1.87,-21.379 -5.52,-28.117 -6.81,-12.414 -19.71,-18.606 -38.75,-18.606 -18.8,0 -31.58,6.114 -38.39,18.36 -3.69,6.574 -5.52,15.207 -5.52,25.988 v 54.363 c 0,6.328 -0.96,10.391 -2.91,12.168 -1.98,1.809 -6.25,2.949 -12.79,3.457 v 3.223 l 49.33,0.019"/><path
    id="path64"
    style="fill:#820b27;fill-opacity:1;fill-rule:nonzero;stroke:none"
    d="m 5202.59,481.941 h 98.36 l 0.95,-29.57 h -4.16 c -2.06,9.301 -4.65,15.332 -7.77,18.137 -3.16,2.793 -9.76,4.207 -19.84,4.207 h -9.67 v -89.024 c 0,-6.699 1.04,-10.867 3.13,-12.461 2.09,-1.601 6.69,-2.675 13.76,-3.164 v -3.242 h -50.68 v 3.242 c 7.34,0.547 11.93,1.77 13.72,3.633 1.83,1.856 2.75,6.535 2.75,14.035 v 86.981 h -9.79 c -9.6,0 -16.2,-1.387 -19.64,-4.18 -3.51,-2.773 -6.11,-8.808 -7.88,-18.164 h -4.24 l 1,29.57"/><path
    id="path66"
    style="fill:#820b27;fill-opacity:1;fill-rule:nonzero;stroke:none"
    d="m 5308.27,370.066 c 6.8,0.727 11.04,1.977 12.75,3.75 1.68,1.778 2.54,6.418 2.54,13.918 v 75.34 c 0,6.223 -0.95,10.274 -2.83,12.149 -1.92,1.867 -6.05,3 -12.46,3.476 v 3.242 h 48.26 v -3.242 c -6.37,-0.476 -10.52,-1.609 -12.43,-3.476 -1.89,-1.875 -2.87,-5.926 -2.87,-12.149 V 429.18 h 52.84 v 33.894 c 0,6.223 -0.91,10.274 -2.8,12.149 -1.85,1.867 -6.04,3 -12.5,3.476 v 3.242 h 48.25 v -3.242 c -6.4,-0.476 -10.52,-1.609 -12.41,-3.476 -1.92,-1.875 -2.86,-5.926 -2.86,-12.149 v -77.383 c 0,-6.316 0.94,-10.371 2.86,-12.136 1.89,-1.75 6.01,-2.942 12.41,-3.489 v -3.242 h -48.25 v 3.242 c 6.87,0.664 11.12,1.899 12.8,3.711 1.68,1.797 2.5,6.457 2.5,13.957 v 33.797 h -52.84 v -35.84 c 0,-6.316 0.98,-10.371 2.87,-12.175 1.91,-1.789 6.06,-2.961 12.43,-3.45 v -3.242 h -48.26 v 3.242"/><path
    id="path68"
    style="fill:#820b27;fill-opacity:1;fill-rule:nonzero;stroke:none"
    d="m 2888.74,127.234 c 31.76,0 46.26,18.996 46.26,45.727 0,26.695 -14.5,45.633 -46.26,45.633 h -13.05 v -91.36 z m -42.52,117.258 h 43.99 c 43.96,0 75.35,-29.23 75.35,-71.531 0,-42.328 -31.15,-71.606 -75.35,-71.606 h -43.99 v 143.137"/><path
    id="path70"
    style="fill:#820b27;fill-opacity:1;fill-rule:nonzero;stroke:none"
    d="m 2992.13,191.004 h 28.41 l -0.41,-16.168 c 6.49,14.695 17.03,18.086 26.29,18.086 5.92,0 10.34,-1.684 13.88,-3.578 l -9.06,-25.887 c -3.56,1.711 -6.92,2.742 -10.92,2.742 -12.85,0 -19.78,-5.906 -19.78,-25.047 v -39.797 h -28.41 v 89.649"/><path
    id="path72"
    style="fill:#820b27;fill-opacity:1;fill-rule:nonzero;stroke:none"
    d="m 3086.17,191.004 h 28.43 v -89.649 h -28.43 z m -3.77,32.836 c 0,10.34 8.42,17.672 18.12,17.672 9.66,0 17.88,-7.332 17.88,-17.672 0,-10.492 -8.22,-17.863 -17.88,-17.863 -9.7,0 -18.12,7.371 -18.12,17.863"/><path
    id="path74"
    style="fill:#820b27;fill-opacity:1;fill-rule:nonzero;stroke:none"
    d="m 3139.24,191.004 h 31.35 l 12.62,-26.719 c 4.21,-9.031 7.36,-23.758 7.36,-23.758 0,0 2.95,14.727 6.95,23.758 l 12.2,26.719 h 28.82 l -47.97,-91.5235 h -2.71 l -48.62,91.5235"/><path
    id="path76"
    style="fill:#820b27;fill-opacity:1;fill-rule:nonzero;stroke:none"
    d="m 3322.14,153.984 c -1.27,9.883 -7.6,15.782 -18.74,15.782 -11.17,0 -18.74,-5.012 -21.04,-15.782 z m -16.21,-30.91 c 10.29,0 18.1,3.957 22.52,7.141 l 16.2,-17.473 c -8.63,-7.574 -19.56,-13.2615 -38.31,-13.2615 -31.96,0 -52.6,19.3595 -52.6,46.9145 0,27.152 21.66,46.527 49.46,46.527 32.2,0 49.68,-24.016 47.56,-55.332 h -67.96 c 2.74,-9.289 10.29,-14.516 23.13,-14.516"/><path
    id="path78"
    style="fill:#820b27;fill-opacity:1;fill-rule:nonzero;stroke:none"
    d="m 3380.63,191.004 h 28.41 l -0.62,-14.695 c 5.48,10.703 15.97,16.613 28.41,16.613 19.56,0 33.68,-14.289 33.68,-39.777 v -51.79 h -28.41 v 49.903 c 0,10.09 -4.83,15.734 -14.97,15.734 -11.34,0 -18.09,-6.289 -18.09,-17.609 v -48.028 h -28.41 v 89.649"/><path
    id="path80"
    style="fill:#820b27;fill-opacity:1;fill-rule:nonzero;stroke:none"
    d="m 3568.37,135.039 v 32.422 h -13.26 v 23.543 h 13.26 v 46.769 h 28.23 v -46.769 h 22.93 v -23.543 h -22.93 v -33.262 c 0,-9.054 2.92,-10.937 7.34,-10.937 4.62,0 7.98,2.519 9.86,3.769 l 10.76,-19.734 c -4.42,-3.598 -11.99,-8.2267 -25.04,-8.2267 -18.1,0 -31.15,9.0427 -31.15,35.9687"/><path
    id="path82"
    style="fill:#820b27;fill-opacity:1;fill-rule:nonzero;stroke:none"
    d="m 3715.05,146.016 c 0,13.437 -7.56,22.488 -20.21,22.488 -12.61,0 -20.42,-9.051 -20.42,-22.488 0,-13.262 7.81,-22.551 20.42,-22.551 12.65,0 20.21,9.289 20.21,22.551 z m -69.66,0 c 0,27.371 21.67,46.906 49.45,46.906 27.79,0 49.25,-19.535 49.25,-46.906 0,-27.176 -21.46,-46.5355 -49.25,-46.5355 -27.78,0 -49.45,19.3595 -49.45,46.5355"/><path
    id="path84"
    style="fill:#820b27;fill-opacity:1;fill-rule:nonzero;stroke:none"
    d="m 3877.09,127.234 c 31.77,0 46.3,18.996 46.3,45.727 0,26.695 -14.53,45.633 -46.3,45.633 h -13.04 v -91.36 z m -42.49,117.258 h 43.97 c 43.99,0 75.32,-29.23 75.32,-71.531 0,-42.328 -31.15,-71.606 -75.32,-71.606 h -43.97 v 143.137"/><path
    id="path86"
    style="fill:#820b27;fill-opacity:1;fill-rule:nonzero;stroke:none"
    d="m 3986.54,191.004 h 28.41 v -89.649 h -28.41 z m -3.8,32.836 c 0,10.34 8.4,17.672 18.12,17.672 9.66,0 17.83,-7.332 17.83,-17.672 0,-10.492 -8.17,-17.863 -17.83,-17.863 -9.72,0 -18.12,7.371 -18.12,17.863"/><path
    id="path88"
    style="fill:#820b27;fill-opacity:1;fill-rule:nonzero;stroke:none"
    d="m 4042.29,116.543 16.62,14.707 c 6.13,-5.879 13.88,-9.465 22.33,-9.465 9.23,0 12.2,1.68 12.2,5.449 0,4.864 -5.71,4.864 -20.21,8.704 -12.26,3.113 -25.87,9.871 -25.87,28.582 0,20.175 15.52,28.402 34.69,28.402 14.72,0 25.25,-4.817 32.64,-12.406 l -15.17,-16.231 c -4.22,3.606 -10.52,6.778 -17.27,6.778 -6.48,0 -9.64,-1.719 -9.64,-5.282 0,-5.078 5.66,-5.683 17.86,-8.429 13.05,-2.957 29.47,-9.059 29.47,-27.989 0,-16.441 -8.61,-29.8825 -36.81,-29.8825 -20.83,0 -33.06,7.8165 -40.84,17.0625"/><path
    id="path90"
    style="fill:#820b27;fill-opacity:1;fill-rule:nonzero;stroke:none"
    d="m 4144.81,146.395 c 0,27.152 21,46.527 49,46.527 17.91,0 28.62,-6.504 37.66,-17.856 l -20.22,-16.472 c -3.36,5.496 -10.28,9.492 -17.44,9.492 -12.79,0 -20.01,-9.055 -20.01,-21.691 0,-13.028 7.22,-22.274 20.01,-22.274 9.05,0 13.88,4.18 18.13,8.406 l 19.12,-16.836 c -8.84,-9.921 -19.34,-16.2105 -37.25,-16.2105 -28,0 -49,19.3595 -49,46.9145"/><path
    id="path92"
    style="fill:#820b27;fill-opacity:1;fill-rule:nonzero;stroke:none"
    d="m 4323.26,146.016 c 0,13.437 -7.6,22.488 -20.22,22.488 -12.61,0 -20.42,-9.051 -20.42,-22.488 0,-13.262 7.81,-22.551 20.42,-22.551 12.62,0 20.22,9.289 20.22,22.551 z m -69.72,0 c 0,27.371 21.72,46.906 49.5,46.906 27.74,0 49.25,-19.535 49.25,-46.906 0,-27.176 -21.51,-46.5355 -49.25,-46.5355 -27.78,0 -49.5,19.3595 -49.5,46.5355"/><path
    id="path94"
    style="fill:#820b27;fill-opacity:1;fill-rule:nonzero;stroke:none"
    d="m 4367.47,191.004 h 31.34 l 12.62,-26.719 c 4.21,-9.031 7.36,-23.758 7.36,-23.758 0,0 2.98,14.727 6.93,23.758 l 12.25,26.719 h 28.82 l -48,-91.5235 h -2.71 l -48.61,91.5235"/><path
    id="path96"
    style="fill:#820b27;fill-opacity:1;fill-rule:nonzero;stroke:none"
    d="m 4550.37,153.984 c -1.27,9.883 -7.61,15.782 -18.74,15.782 -11.15,0 -18.75,-5.012 -21.02,-15.782 z m -16.24,-30.91 c 10.34,0 18.12,3.957 22.54,7.141 l 16.18,-17.473 c -8.58,-7.574 -19.54,-13.2615 -38.25,-13.2615 -32.03,0 -52.63,19.3595 -52.63,46.9145 0,27.152 21.66,46.527 49.45,46.527 32.21,0 49.65,-24.016 47.56,-55.332 h -67.95 c 2.7,-9.289 10.31,-14.516 23.1,-14.516"/><path
    id="path98"
    style="fill:#820b27;fill-opacity:1;fill-rule:nonzero;stroke:none"
    d="m 4608.89,191.004 h 28.4 l -0.44,-16.168 c 6.54,14.695 17.09,18.086 26.32,18.086 5.89,0 10.31,-1.684 13.88,-3.578 l -9.08,-25.887 c -3.57,1.711 -6.9,2.742 -10.91,2.742 -12.85,0 -19.77,-5.906 -19.77,-25.047 v -39.797 h -28.4 v 89.649"/><path
    id="path100"
    style="fill:#820b27;fill-opacity:1;fill-rule:nonzero;stroke:none"
    d="m 4685.82,188.797 1.42,0.734 c 0.79,-1.347 1.89,-2.519 4.15,-2.519 1.89,0 3.36,1.093 3.36,2.793 0,1.648 -1.03,2.449 -3,3.34 l -1.3,0.632 c -2.33,1.036 -3.53,2.149 -3.53,4.356 0,2.316 1.8,3.898 4.21,3.898 2.15,0 3.47,-1.015 4.36,-2.453 l -1.38,-0.84 c -0.59,1.008 -1.48,1.789 -2.98,1.789 -1.62,0 -2.53,-0.949 -2.53,-2.336 0,-1.406 0.76,-2.058 2.53,-2.898 l 1.27,-0.578 c 2.68,-1.168 4.03,-2.469 4.03,-4.91 0,-2.688 -2.09,-4.309 -4.95,-4.309 -3.09,0 -4.8,1.594 -5.66,3.301"/><path
    id="path102"
    style="fill:#820b27;fill-opacity:1;fill-rule:nonzero;stroke:none"
    d="m 4699.97,202.031 h 0.18 l 7.54,-9.375 7.45,9.375 h 0.24 v -16.328 h -1.67 v 10.676 c 0,0.699 0.05,1.812 0.05,1.812 0,0 -0.62,-1.023 -1.12,-1.64 l -4.86,-6.16 h -0.3 l -4.83,6.16 c -0.53,0.617 -1.15,1.64 -1.15,1.64 0,0 0.12,-1.113 0.12,-1.812 v -10.676 h -1.65 v 16.328"/><path
    id="path104"
    style="fill:#820b27;fill-opacity:1;fill-rule:nonzero;stroke:none"
    d="m 259.355,617.813 v -17.032 c -35.14,-2.336 -57.89,-8.222 -68.32,-17.566 -10.414,-9.387 -15.648,-30.91 -15.648,-64.543 V 226.34 c 0,-47.883 6.57,-85.293 19.656,-112.063 24.426,-48.8278 70.66,-73.2301 138.82,-73.2301 74.711,0 124.852,25.0156 150.399,75.0081 14.308,27.957 21.453,71.14 21.453,129.406 v 237.945 c 0,49.727 -5.926,80.86 -17.817,93.508 -11.918,12.637 -34.55,20.594 -67.843,23.867 v 17.032 h 211.57 v -17.032 c -35.398,-3.828 -58.535,-12.363 -69.406,-25.664 -10.891,-13.203 -16.313,-43.75 -16.313,-91.711 V 245.461 c 0,-63.07 -9.633,-112.27 -29.008,-147.6993 C 481.168,32.5664 413.305,0 313.355,0 214.52,0 147.246,32.1367 111.578,96.418 92.2031,130.926 82.5195,176.484 82.5195,232.988 v 285.684 c 0,33.34 -5.082,54.676 -15.3672,64.101 C 56.8711,592.156 34.4766,598.145 0,600.781 v 17.032 h 259.355"/><path
    id="path106"
    style="fill:#820b27;fill-opacity:1;fill-rule:nonzero;stroke:none"
    d="m 610,29.9102 c 37.75,3.8789 62.027,12.4023 72.754,25.6367 10.699,13.2031 16.059,43.9062 16.059,92.1211 V 518.77 c 0,33.007 -5.184,54.492 -15.633,64.445 -10.43,9.957 -34.11,15.808 -70.957,17.566 v 17.032 h 180.222 l 210.005,-455.372 204.82,455.372 h 181.69 v -17.032 c -33.93,-2.336 -55.81,-8.515 -65.69,-18.445 -9.74,-9.934 -14.66,-31.176 -14.66,-63.566 V 112.391 c 0,-33.3012 4.92,-54.6488 14.66,-63.973 9.88,-9.375 31.76,-15.5586 65.69,-18.5078 V 12.9219 h -255.77 v 16.9883 c 36.83,2.9492 59.85,9.5625 68.92,19.8359 9.08,10.2539 13.65,34.707 13.65,73.3669 V 533.484 L 981.609,12.9219 H 969.117 L 738.98,512.051 V 147.668 c 0,-50.0117 7.321,-82.4844 21.895,-97.7383 9.484,-9.793 30.789,-16.4844 63.836,-20.0195 V 12.9219 H 610 v 16.9883"/><path
    id="path108"
    style="fill:#820b27;fill-opacity:1;fill-rule:nonzero;stroke:none"
    d="m 1556.56,54.0039 c 7.35,-4.7656 22.38,-7.1484 45.36,-7.1484 71.43,0 130.23,14.1406 176.34,42.4023 70.78,43.4962 106.2,117.8122 106.2,223.0272 0,93.762 -29.18,164.344 -87.46,211.727 -49.98,40.508 -116.15,60.734 -198.63,60.734 -20.56,0 -34.46,-2.238 -41.81,-6.66 -7.23,-4.531 -10.89,-14.406 -10.89,-29.539 V 83.4648 c 0,-14.8632 3.66,-24.6875 10.89,-29.4609 z M 1372.42,29.9102 c 33.4,3.5351 55.16,9.5117 65.26,17.9609 10.04,8.4453 15.14,29.832 15.14,64.1719 v 406.629 c 0,33.34 -4.92,54.773 -14.76,64.297 -9.76,9.48 -31.66,15.476 -65.64,17.812 v 17.032 h 246.39 c 83.1,0 153.32,-13.731 210.69,-41.075 103.58,-49.14 155.43,-136.867 155.43,-263.41 0,-45.515 -9.37,-88.769 -27.89,-129.863 -18.66,-41.094 -46.64,-75.762 -84.19,-104.0236 -23.81,-17.8711 -48.53,-31.375 -74.12,-40.6641 -46.7,-17.2265 -104.13,-25.8554 -172.26,-25.8554 h -254.05 v 16.9883"/></g></g></svg>
