<?xml version="1.0" encoding="iso-8859-1"?>
<!-- Generator: Adobe Illustrator 19.0.0, SVG Export Plug-In . SVG Version: 6.00 Build 0)  -->
<svg version="1.1" id="Capa_1" xmlns="http://www.w3.org/2000/svg" xmlns:xlink="http://www.w3.org/1999/xlink" x="0px" y="0px"
	 viewBox="0 0 511.997 511.997" style="enable-background:new 0 0 511.997 511.997;" xml:space="preserve">
<g>
	<g>
		<path d="M437.014,74.98C388.662,26.629,324.375,0,255.995,0S123.328,26.629,74.975,74.98
			C32.906,117.05,6.679,172.786,1.123,231.921c-5.481,58.357,9.284,117.217,41.579,165.735c3.061,4.599,9.271,5.842,13.865,2.784
			c4.598-3.06,5.844-9.268,2.783-13.866C-2.633,293.451,9.886,168.354,89.118,89.123c92.016-92.017,241.738-92.017,333.754,0
			c44.575,44.574,69.123,103.839,69.123,166.877s-24.548,122.303-69.123,166.877c-82.446,82.447-210.728,92.756-305.021,24.511
			c-4.474-3.237-10.727-2.237-13.964,2.238c-3.238,4.474-2.236,10.726,2.237,13.964c43.567,31.531,96.17,48.409,149.926,48.407
			c6.399,0,12.823-0.24,19.242-0.722c60.986-4.583,118.42-30.955,161.722-74.256c48.352-48.352,74.98-112.639,74.98-181.02
			S485.366,123.333,437.014,74.98z"/>
	</g>
</g>
<g>
	<g>
		<path d="M399.213,113.548l-0.353-0.354c-3.89-3.922-10.222-3.947-14.143-0.059c-3.921,3.889-3.947,10.221-0.059,14.142
			l0.353,0.354c1.956,1.972,4.528,2.958,7.101,2.958c2.546,0,5.092-0.966,7.042-2.899
			C403.075,123.801,403.101,117.469,399.213,113.548z"/>
	</g>
</g>
<g>
	<g>
		<path d="M429.448,152.383c-2.835-4.74-8.977-6.285-13.716-3.447c-4.739,2.835-6.282,8.976-3.446,13.716
			c42.858,71.627,31.511,162.935-27.597,222.042c-70.961,70.962-186.426,70.962-257.387,0c-70.962-70.961-70.962-186.425,0-257.387
			c59.071-59.073,150.343-70.441,221.954-27.649c4.741,2.832,10.88,1.286,13.714-3.455c2.833-4.741,1.286-10.88-3.454-13.713
			c-37.919-22.659-83.101-32.282-127.21-27.104c-45.49,5.343-86.689,25.322-119.146,57.779c-78.759,78.76-78.759,206.911,0,285.671
			c39.38,39.38,91.108,59.07,142.836,59.07c51.728,0,103.456-19.69,142.836-59.07c32.471-32.471,52.452-73.69,57.784-119.201
			C461.788,235.498,452.139,190.305,429.448,152.383z"/>
	</g>
</g>
<g>
	<g>
		<path d="M351.999,209.332c0-40.419-32.003-73.496-72-75.247V112c0-5.523-4.478-10-10-10c-5.522,0-10,4.477-10,10v22h-32.008v-22
			c0-5.523-4.478-10-10-10c-5.522,0-10,4.477-10,10v22h-38c-5.522,0-10,4.477-10,10v40c0,5.523,4.478,10,10,10h14.008v124h-14.008
			c-5.522,0-10,4.477-10,10v40c0,5.523,4.478,10,10,10h38v22c0,5.523,4.478,10,10,10c5.522,0,10-4.477,10-10v-22h32.008v22
			c0,5.523,4.478,10,10,10c5.522,0,10-4.477,10-10v-22.085c39.997-1.752,72-34.828,72-75.249c0-17.16-5.705-33.416-16.23-46.667
			C346.294,242.749,351.999,226.493,351.999,209.332z M276.665,358h-96.674v-20h14.008c5.522,0,10-4.477,10-10V184
			c0-5.523-4.478-10-10-10h-14.008v-20h96.674c30.512,0,55.334,24.823,55.334,55.333c0,14.966-5.919,29.001-16.667,39.52
			c-1.923,1.881-3.006,4.458-3.006,7.147c0,2.689,1.083,5.266,3.006,7.147c10.748,10.519,16.667,24.554,16.667,39.52
			C331.999,333.178,307.177,358,276.665,358z"/>
	</g>
</g>
<g>
	<g>
		<path d="M274.936,171.333h-43.938c-5.522,0-10,4.477-10,10v56c0,5.523,4.478,10,10,10h43.938c20.953,0,38-17.047,38-38
			S295.889,171.333,274.936,171.333z M274.936,227.333h-33.938v-36h33.938c9.925,0,18,8.075,18,18
			C292.936,219.258,284.861,227.333,274.936,227.333z"/>
	</g>
</g>
<g>
	<g>
		<path d="M274.936,264.667h-43.938c-5.522,0-10,4.477-10,10v56c0,5.523,4.478,10,10,10h43.938c20.953,0,38-17.047,38-38
			S295.889,264.667,274.936,264.667z M274.936,320.667h-33.938v-36h33.938c9.925,0,18,8.075,18,18S284.861,320.667,274.936,320.667z
			"/>
	</g>
</g>
<g>
	<g>
		<path d="M89.5,421.684l-0.353-0.354c-3.89-3.922-10.222-3.947-14.143-0.059c-3.921,3.889-3.947,10.221-0.059,14.142l0.353,0.354
			c1.956,1.971,4.528,2.958,7.101,2.958c2.546,0,5.092-0.966,7.042-2.899C93.362,431.937,93.388,425.605,89.5,421.684z"/>
	</g>
</g>
<g>
</g>
<g>
</g>
<g>
</g>
<g>
</g>
<g>
</g>
<g>
</g>
<g>
</g>
<g>
</g>
<g>
</g>
<g>
</g>
<g>
</g>
<g>
</g>
<g>
</g>
<g>
</g>
<g>
</g>
</svg>
