<?xml version="1.0" encoding="iso-8859-1"?>
<!-- Generator: Adobe Illustrator 19.0.0, SVG Export Plug-In . SVG Version: 6.00 Build 0)  -->
<svg version="1.1" id="Capa_1" xmlns="http://www.w3.org/2000/svg" xmlns:xlink="http://www.w3.org/1999/xlink" x="0px" y="0px"
	 viewBox="0 0 512.002 512.002" style="enable-background:new 0 0 512.002 512.002;" xml:space="preserve">
<g>
	<g>
		<path d="M406.981,66.981v-56.98c0-3.994-2.376-7.604-6.045-9.185c-3.668-1.581-7.925-0.826-10.827,1.919l-30.104,28.472
			L329.902,2.735c-2.902-2.744-7.16-3.5-10.827-1.919c-3.668,1.58-6.045,5.19-6.045,9.185v56.98c0,2.749,1.131,5.377,3.128,7.266
			l23.789,22.498C324.602,104.209,314,119.957,314,138.136v60c0,25.364,20.636,46,46,46s46-20.636,46-46v-60
			c0-18.176-10.599-33.921-25.939-41.387l23.792-22.502C405.85,72.358,406.981,69.73,406.981,66.981z M333.03,62.675V33.223
			l16.976,16.056v29.452L333.03,62.675z M360,224.137c-12.238,0-22.521-8.501-25.272-19.906h50.543
			C382.521,215.636,372.237,224.137,360,224.137z M386,184.231h-52v-34h52V184.231z M384.766,130.231h-49.534
			c3.354-10.482,13.187-18.094,24.767-18.094C371.579,112.137,381.412,119.749,384.766,130.231z M386.981,62.675l-16.976,16.056
			V49.278l16.976-16.056V62.675z"/>
	</g>
</g>
<g>
	<g>
		<path d="M291.499,84.999h-70.5c-5.523,0-10,4.478-10,10c0,5.522,4.477,10,10,10h70.5c5.523,0,10-4.478,10-10
			C301.499,89.477,297.022,84.999,291.499,84.999z"/>
	</g>
</g>
<g>
	<g>
		<path d="M433,84.999h-25c-5.523,0-10,4.478-10,10c0,5.522,4.477,10,10,10h25c12.131,0,22,9.869,22,22v213.046
			c-0.302-0.027-0.606-0.046-0.915-0.046H208.938c5.091-7.402,8.08-16.357,8.08-26v-60c0-18.176-10.599-33.921-25.939-41.387
			l23.792-22.502c1.997-1.889,3.128-4.517,3.128-7.266v-56.98c0-3.994-2.376-7.604-6.045-9.185s-7.925-0.825-10.827,1.919
			l-30.104,28.472l-30.104-28.472c-2.902-2.744-7.16-3.5-10.827-1.919c-3.668,1.58-6.045,5.19-6.045,9.185v56.98
			c0,2.749,1.131,5.377,3.128,7.266l23.788,22.498c-15.345,7.464-25.947,23.212-25.947,41.391v60c0,9.643,2.988,18.598,8.08,26H57
			v-213c0-12.131,9.869-22,22-22h45c5.523,0,10-4.478,10-10c0-5.522-4.477-10-10-10H79c-23.159,0-42,18.841-42,42v249.002
			c0,23.159,18.841,42,42,42h127.037v33.996h-39.024c-5.523,0-10,4.478-10,10v40.004c0,5.522,4.477,10,10,10h178.049
			c5.523,0,10-4.478,10-10v-40.004c0-5.522-4.477-10-10-10h-39.024v-33.996h126.963c23.159,0,42-18.841,42-42V126.999
			C475,103.84,456.158,84.999,433,84.999z M181.024,165.141L198,149.085v29.452l-16.976,16.056V165.141z M144.048,178.537v-29.452
			l16.976,16.056v29.452L144.048,178.537z M171.018,227.999c11.58,0,21.413,7.612,24.767,18.094h-49.534
			C149.605,235.611,159.437,227.999,171.018,227.999z M145.018,266.093h52v34h-52V266.093z M196.289,320.093
			c-2.75,11.405-13.034,19.906-25.272,19.906c-12.238,0-22.521-8.501-25.271-19.906H196.289z M335.061,471.997v20.004H177.012
			v-20.004H335.061z M226.036,451.997v-33.996h60v33.996H226.036z M455,376.001c0,12.131-9.87,22-22,22H79c-12.131,0-22-9.869-22-22
			v-16.002h397.085c0.309,0,0.613-0.019,0.915-0.046V376.001z"/>
	</g>
</g>
<g>
	<g>
		<path d="M283,137.001c-5.523,0-10,4.478-10,10v47.229c0,5.522,4.477,10,10,10s10-4.478,10-10v-47.229
			C293,141.479,288.523,137.001,283,137.001z"/>
	</g>
</g>
<g>
	<g>
		<path d="M290.069,221.931c-1.86-1.86-4.44-2.93-7.07-2.93s-5.21,1.069-7.07,2.93c-1.86,1.86-2.93,4.44-2.93,7.07
			s1.07,5.21,2.93,7.069c1.86,1.86,4.44,2.931,7.07,2.931s5.21-1.07,7.07-2.931c1.86-1.859,2.93-4.439,2.93-7.069
			S291.929,223.791,290.069,221.931z"/>
	</g>
</g>
<g>
	<g>
		<path d="M290.069,259.931c-1.86-1.86-4.44-2.93-7.07-2.93s-5.21,1.069-7.07,2.93c-1.86,1.86-2.93,4.44-2.93,7.07
			s1.07,5.21,2.93,7.069c1.86,1.86,4.44,2.931,7.07,2.931s5.21-1.07,7.07-2.931c1.86-1.859,2.93-4.439,2.93-7.069
			S291.929,261.791,290.069,259.931z"/>
	</g>
</g>
<g>
	<g>
		<path d="M290.07,297.931c-1.86-1.86-4.441-2.93-7.07-2.93c-2.63,0-5.21,1.069-7.07,2.93c-1.86,1.86-2.93,4.44-2.93,7.07
			s1.07,5.21,2.93,7.069c1.86,1.86,4.44,2.931,7.07,2.931s5.21-1.07,7.07-2.931c1.86-1.859,2.93-4.439,2.93-7.069
			S291.93,299.791,290.07,297.931z"/>
	</g>
</g>
<g>
	<g>
		<path d="M178.09,2.931c-1.86-1.86-4.44-2.93-7.07-2.93s-5.21,1.069-7.07,2.93c-1.86,1.86-2.93,4.44-2.93,7.07
			s1.07,5.21,2.93,7.069c1.86,1.861,4.439,2.931,7.07,2.931c2.63,0,5.21-1.07,7.07-2.931c1.86-1.859,2.93-4.439,2.93-7.069
			S179.95,4.791,178.09,2.931z"/>
	</g>
</g>
<g>
	<g>
		<path d="M178.09,45.431c-1.86-1.86-4.44-2.93-7.07-2.93s-5.21,1.069-7.07,2.93c-1.86,1.86-2.93,4.43-2.93,7.07
			c0,2.63,1.07,5.21,2.93,7.069c1.86,1.861,4.439,2.931,7.07,2.931c2.63,0,5.21-1.07,7.07-2.931c1.86-1.859,2.93-4.439,2.93-7.069
			S179.95,47.291,178.09,45.431z"/>
	</g>
</g>
<g>
	<g>
		<path d="M178.09,87.931c-1.86-1.86-4.44-2.93-7.07-2.93c-2.64,0-5.21,1.069-7.07,2.93c-1.86,1.86-2.93,4.43-2.93,7.07
			c0,2.63,1.07,5.21,2.93,7.069c1.86,1.861,4.439,2.931,7.07,2.931c2.63,0,5.21-1.07,7.07-2.931c1.86-1.859,2.93-4.439,2.93-7.069
			C181.02,92.36,179.95,89.791,178.09,87.931z"/>
	</g>
</g>
<g>
</g>
<g>
</g>
<g>
</g>
<g>
</g>
<g>
</g>
<g>
</g>
<g>
</g>
<g>
</g>
<g>
</g>
<g>
</g>
<g>
</g>
<g>
</g>
<g>
</g>
<g>
</g>
<g>
</g>
</svg>
