<svg height="512pt" viewBox="-47 0 512 512.00025" width="512pt" xmlns="http://www.w3.org/2000/svg"><path d="m192.503906 259.589844c10.222656 4.722656 21.957032 4.726562 32.183594 0 5.011719-2.316406 7.199219-8.261719 4.882812-13.273438-2.316406-5.011718-8.257812-7.195312-13.273437-4.882812-4.894531 2.261718-10.507813 2.261718-15.402344 0-5.011719-2.3125-10.953125-.128906-13.269531 4.882812-2.320312 5.011719-.132812 10.957032 4.878906 13.273438zm0 0"/><path d="m253.351562 402.390625c5.523438 0 10-4.480469 10-10 0-5.523437-4.476562-10-10-10h-10.914062c-.308594-1.578125-.726562-3.117187-1.246094-4.609375 3.515625-1.109375 7.054688-2.835938 10.238282-5.480469 4.691406-3.894531 10.28125-11.292969 10.28125-24.394531 0-5.519531-4.476563-9.996094-10-9.996094-5.523438 0-10 4.476563-10 9.996094 0 6.4375-2.277344 8.355469-3.027344 8.984375-3.195313 2.691406-8.976563 2.871094-12.273438 2.617187-10.933594-6.621093-24.683594-6.628906-35.632812.003907-3.109375.226562-8.988282.101562-12.230469-2.59375-.757813-.628907-3.0625-2.542969-3.0625-9.011719 0-5.519531-4.476563-10-10-10s-10 4.480469-10 10c0 13.101562 5.589844 20.496094 10.277344 24.394531 3.183593 2.640625 6.722656 4.371094 10.238281 5.476563-.519531 1.496094-.9375 3.035156-1.25 4.613281h-10.90625c-5.523438 0-10 4.476563-10 10 0 5.519531 4.476562 9.996094 10 9.996094h10.90625c.3125 1.582031.730469 3.121093 1.25 4.617187-3.511719 1.109375-7.054688 2.832032-10.238281 5.476563-4.6875 3.894531-10.277344 11.292969-10.277344 24.390625 0 5.523437 4.476563 10 10 10s10-4.476563 10-10c0-6.433594 2.277344-8.351563 3.027344-8.980469 3.195312-2.691406 8.980469-2.867187 12.273437-2.617187 10.933594 6.617187 24.671875 6.628906 35.621094 0 3.105469-.230469 8.992188-.109376 12.242188 2.589843.757812.628907 3.0625 2.542969 3.0625 9.011719 0 5.519531 4.476562 10 10 10 5.523437 0 10-4.480469 10-10 0-13.101562-5.589844-20.496094-10.28125-24.394531-3.183594-2.644531-6.726563-4.367188-10.238282-5.476563.515625-1.496094.9375-3.035156 1.246094-4.613281zm-59.25-6.644531v-6.710938c0-7.992187 6.5-14.492187 14.492188-14.492187s14.492188 6.5 14.492188 14.492187v6.710938c0 7.988281-6.5 14.492187-14.492188 14.492187s-14.492188-6.503906-14.492188-14.492187zm0 0"/><path d="m129 99.949219c4.65625 2.898437 10.824219 1.488281 13.761719-3.195313.117187-.191406 12.152343-19.078125 38.070312-33.570312 4.820313-2.695313 6.542969-8.785156 3.847657-13.609375-2.695313-4.816407-8.785157-6.539063-13.605469-3.847657-30.703125 17.167969-44.734375 39.554688-45.316407 40.5-2.894531 4.6875-1.4375 10.816407 3.242188 13.722657zm0 0"/><path d="m207.585938 48.796875h.023437c5.523437 0 9.988281-4.476563 9.988281-9.996094 0-5.523437-4.488281-10-10.011718-10-5.523438 0-10 4.476563-10 10 0 5.519531 4.476562 9.996094 10 9.996094zm0 0"/><path d="m414.445312 335.992188-16.710937-44.886719c-13.742187-36.925781-42.621094-54-42.519531-53.90625-7.667969-5.207031-13.859375-7.898438-25.472656-14.234375 11.472656-19.328125 17.210937-42.5625 16.859374-54.542969-2.285156-76.171875-40.539062-132.398437-102.542968-160.574219-.167969-.078125-.332032-.160156-.503906-.234375-23.425782-10.683593-49.328126-10.621093-76.914063 3.367188-57.980469 29.273437-93.832031 83.402343-96.050781 157.441406-.003906.097656-.003906.199219-.003906.300781 0 13.226563 5.507812 35.113282 16.859374 54.242188-16.089843 8.664062-51.035156 22.59375-67.992187 68.140625l-16.707031 44.886719c-8.605469 23.125 3.714844 48.78125 27.269531 56.4375l33.828125 10.992187v55.015625c-8.570312 3.683594-14.585938 12.203125-14.585938 22.109375v21.453125c0 5.523438 4.476563 10 10 10h298.675782c5.523437 0 10-4.476562 10-10v-21.453125c0-9.90625-6.015625-18.425781-14.585938-22.109375v-55.015625l33.828125-10.992187c23.46875-7.628907 35.90625-33.226563 27.269531-56.4375zm-78.890624-87.292969c-16.21875 22.777343-39.355469 40.84375-68.929688 53.796875h-115.835938c-29.609374-12.972656-52.769531-31.066406-68.992187-53.886719l17.242187-9.15625c29.527344 35.765625 82.132813 55.035156 109.554688 55.035156 6.757812 0 13.511719-.835937 20.078125-2.507812 34.464844-8.761719 66.746094-24.996094 89.476563-52.527344zm-2.207032 147.457031v60.332031h-249.503906c0-14.691406 0-105.734375 0-120.375 0-7.507812 6.109375-13.621093 13.617188-13.621093h222.265624c7.511719 0 13.621094 6.113281 13.621094 13.621093zm-240.019531-255.273438 13.371094-3.675781c-.652344 34.65625 4.664062 73.015625 21.265625 103.269531-24.824219-21.445312-36.851563-51.09375-37.378906-71.664062.296874-9.679688 1.214843-18.992188 2.742187-27.929688zm30.445313-70.3125c14.371093-18.128906 34.085937-33.667968 57.527343-44.46875 17.804688-8.167968 37.695313-8.308593 58.175781 1.703126 37.757813 18.507812 66.050782 48.917968 79.097657 90.882812-5.214844-1.101562-49.011719-15.976562-109.976563-15.976562-61.210937 0-104.695312 14.855468-109.980468 15.976562 5.578124-17.941406 13.972656-34.007812 25.15625-48.117188zm202.832031 98.226563c-.570313 21.574219-12.871094 50.507813-37.378907 71.679687 16.605469-30.257812 21.917969-68.628906 21.265626-103.269531l13.371093 3.675781c1.523438 8.933594 2.441407 18.242188 2.742188 27.914063zm-146.171875-44.984375c.898437-.066406 55.40625-.070312 56.308594 0 19.074218 1.480469 36.410156 4.289062 53.59375 8.199219.027343.703125.050781 1.429687.074218 2.164062l-19.382812 8.714844c-11.527344-10.664063-23.964844-6.203125-35.691406-7.25-13.257813 0-24.324219 9.519531-26.742188 22.078125-2.417969-12.558594-13.484375-22.078125-26.738281-22.078125h-17.21875c-7.238281 0-13.820313 2.84375-18.703125 7.464844l-19.167969-8.617188c.027344-.84375.054687-1.671875.089844-2.476562 16.816406-3.882813 34.90625-6.75 53.578125-8.199219zm79.351562 39.0625v5.148438c0 4.367187-3.550781 7.917968-7.917968 7.917968h-10.703126c-7.203124 0-13.066406-5.859375-13.066406-13.066406 0-3.988281 3.246094-7.234375 7.238282-7.234375h17.214843c3.988281 0 7.234375 3.246094 7.234375 7.234375zm-51.191406 5.667969c.023438.128906.046875.257812.070312.386719-.042968-.003907-.089843-.007813-.136718-.011719.023437-.125.046875-.25.066406-.375zm-51.191406-5.667969c0-3.988281 3.246094-7.234375 7.238281-7.234375h17.214844c3.988281 0 7.234375 3.246094 7.234375 7.234375 0 7.207031-5.859375 13.066406-13.0625 13.066406h-10.703125c-4.367188 0-7.921875-3.550781-7.921875-7.917968zm-19.945313-1.652344c-.09375 1.5625-.035156 1.902344-.054687 6.800782 0 15.394531 12.523437 27.917968 27.917968 27.917968 5.726563-.757812 21.035157 3.371094 34.097657-9.71875l2.390625 8.78125c1.703125 6.238282-3.242188 9.730469-3.777344 10.59375-5.847656 6.421875-1.226562 16.734375 7.390625 16.734375 5.722656 0 8.132813-4.351562 9.0625-5.097656 6.804687-7.46875 9.277344-17.746094 6.621094-27.492187l-.210938-.765626c12.335938 9.597657 24.605469 6.3125 30.972657 6.964844 15.394531 0 27.917968-12.523437 27.917968-27.917968-.023437-4.921876.054688-5.230469-.078125-7.109376l10.503907-4.722656c-2.464844 49.011719-18.621094 99.007813-65.453126 115.0625-10.574218 3.628906-21.753906 3.628906-32.328124 0-46.636719-15.984375-62.90625-65.652344-65.441407-114.738281zm-101.261719 212.183594c-12.65625-4.113281-19.363281-17.917969-14.707031-30.4375l16.707031-44.890625c5.585938-15.003906 14.933594-28.148437 27.003907-38.304687 11.636719 16.492187 26.367187 30.773437 44.050781 42.71875h-11.789062c-18.535157 0-33.617188 15.082031-33.617188 33.621093v46.277344zm311.738282 118.59375h-278.675782v-11.453125c0-2.238281 1.820313-4.058594 4.054688-4.058594h270.566406c2.234375 0 4.054688 1.820313 4.054688 4.058594zm33.058594-118.59375-27.644532 8.984375v-46.277344c0-18.539062-15.082031-33.617187-33.621094-33.617187h-11.5625c17.644532-11.917969 32.34375-26.160156 43.96875-42.605469 12 10.144531 21.296876 23.242187 26.859376 38.191406l16.707031 44.886719c4.644531 12.472656-2.003907 26.3125-14.707031 30.4375zm0 0"/></svg>