<?xml version="1.0" encoding="iso-8859-1"?>
<!-- Generator: Adobe Illustrator 19.0.0, SVG Export Plug-In . SVG Version: 6.00 Build 0)  -->
<svg version="1.1" id="Capa_1" xmlns="http://www.w3.org/2000/svg" xmlns:xlink="http://www.w3.org/1999/xlink" x="0px" y="0px"
	 viewBox="0 0 512.003 512.003" style="enable-background:new 0 0 512.003 512.003;" xml:space="preserve">
<g>
	<g>
		<path d="M354.42,313.463c-15.393-19.146-36.364-33.289-59.687-40.393v-93.069h43.806c5.523,0,10-4.477,10-10v-40
			c0-5.523-4.477-10-10-10h-32.538v-20h32.538c5.523,0,10-4.477,10-10v-40c0-5.523-4.477-10-10-10h-43.806V10.063
			c0-5.523-4.477-10-10-10h-51.034c-5.523,0-10,4.477-10,10v102.938c0,5.523,4.477,10,10,10s10-4.477,10-10V20.063h31.035v29.938
			c0,5.523,4.477,10,10,10h43.806v20h-32.538c-5.523,0-10,4.477-10,10v40c0,5.523,4.477,10,10,10h32.538v20h-43.806
			c-5.523,0-10,4.477-10,10v110.733c0,4.649,3.204,8.685,7.732,9.74c46.422,10.808,78.844,51.697,78.844,99.434
			c0,28.016-11.122,54.146-31.315,73.577c-20.183,19.421-46.751,29.527-74.824,28.438c-54.106-2.084-97.168-46.159-98.034-100.34
			c-0.764-47.774,32.389-90.297,78.831-101.109c4.528-1.055,7.732-5.09,7.732-9.74v-75.733c0-5.523-4.477-10-10-10s-10,4.477-10,10
			v68.068c-23.63,7.195-44.809,21.593-60.263,41.117c-17.408,21.991-26.747,49.59-26.297,77.716
			c0.499,31.214,12.868,60.786,34.83,83.268c21.968,22.49,51.243,35.537,82.432,36.739c1.63,0.063,3.25,0.094,4.872,0.094
			c31.744-0.001,61.625-12.009,84.589-34.106c24.149-23.236,37.448-54.484,37.448-87.988
			C381.31,362.181,371.76,335.032,354.42,313.463z"/>
	</g>
</g>
<g>
	<g>
		<path d="M240.772,153.931c-1.86-1.86-4.44-2.93-7.07-2.93s-5.21,1.07-7.07,2.93c-1.87,1.86-2.93,4.44-2.93,7.07
			s1.06,5.21,2.93,7.07c1.86,1.86,4.44,2.93,7.07,2.93s5.21-1.07,7.07-2.93c1.86-1.86,2.93-4.44,2.93-7.07
			S242.632,155.791,240.772,153.931z"/>
	</g>
</g>
<g>
	<g>
		<path d="M259.626,358.92l-0.409-0.001c-5.523,0-10,4.477-10,10s4.477,10,10,10l0.329,0.001c0.014,0,0.027,0,0.041,0
			c5.504,0,9.977-4.451,9.999-9.96C269.608,363.438,265.148,358.942,259.626,358.92z"/>
	</g>
</g>
<g>
	<g>
		<path d="M298.273,374.031c-4.083-3.718-10.408-3.422-14.126,0.662c-3.718,4.083-3.422,10.408,0.662,14.126
			c7.903,7.196,12.436,17.448,12.436,28.128c0,20.969-17.06,38.028-38.028,38.028s-38.029-17.059-38.029-38.027
			c0-10.158,3.956-19.708,11.139-26.89c3.905-3.905,3.905-10.237,0-14.143c-3.905-3.905-10.237-3.905-14.143,0
			c-10.96,10.96-16.996,25.533-16.996,41.033c0,31.997,26.031,58.028,58.028,58.028c31.997,0,58.028-26.031,58.028-58.028
			C317.244,400.651,310.329,385.009,298.273,374.031z"/>
	</g>
</g>
<g>
	<g>
		<path d="M40.978,492.001h-4.977V433.86c0-4.044-2.437-7.691-6.173-9.239c-3.737-1.549-8.038-0.692-10.898,2.168l-16,16
			c-3.905,3.905-3.905,10.237,0,14.142c3.566,3.565,9.154,3.875,13.071,0.93V492h-5.257c-5.523,0-10,4.477-10,10s4.477,10,10,10
			h30.234c5.523,0,10-4.477,10-10S46.501,492.001,40.978,492.001z"/>
	</g>
</g>
<g>
	<g>
		<path d="M100.002,424.001c-18.748,0-34,15.252-34,34v20c0,18.748,15.252,34,34,34c18.748,0,34-15.252,34-34v-20
			C134.002,439.253,118.749,424.001,100.002,424.001z M114.002,478.001c0,7.72-6.28,14-14,14c-7.72,0-14-6.28-14-14v-20
			c0-7.72,6.28-14,14-14c7.72,0,14,6.28,14,14V478.001z"/>
	</g>
</g>
<g>
	<g>
		<path d="M40.979,209.126h-4.977v-58.141c0-4.044-2.437-7.691-6.173-9.239c-3.737-1.549-8.038-0.692-10.898,2.168l-16,16
			c-3.905,3.905-3.905,10.237,0,14.142c3.566,3.566,9.154,3.876,13.071,0.931v34.139h-5.257c-5.523,0-10,4.477-10,10
			c0,5.523,4.477,10,10,10h30.234c5.523,0,10-4.477,10-10C50.979,213.603,46.502,209.126,40.979,209.126z"/>
	</g>
</g>
<g>
	<g>
		<path d="M194.349,209.125h-4.976v-58.141c0-4.044-2.437-7.691-6.173-9.239c-3.737-1.549-8.038-0.692-10.898,2.167l-16,16
			c-3.905,3.905-3.905,10.237,0,14.143c3.566,3.565,9.155,3.875,13.072,0.93v34.139h-5.258v0.001c-5.523,0-10,4.477-10,10
			s4.477,10,10,10h30.233c5.523,0,10-4.477,10-10S199.872,209.125,194.349,209.125z"/>
	</g>
</g>
<g>
	<g>
		<path d="M100.002,141.125c-18.748,0-34,15.252-34,34c0,0,0,20,0,20c0,18.748,15.252,34,34,34c18.748,0,34-15.252,34-34v-20
			C134.002,156.377,118.75,141.125,100.002,141.125z M114.002,195.125c0,7.72-6.28,14-14,14c-7.72,0-14-6.28-14-14v-20
			c0-7.72,6.28-14,14-14c7.72,0,14,6.28,14,14V195.125z"/>
	</g>
</g>
<g>
	<g>
		<path d="M418.978,492.001h-4.977V433.86c0-4.044-2.437-7.691-6.173-9.239c-3.737-1.549-8.038-0.692-10.898,2.168l-16,16
			c-3.905,3.905-3.905,10.237,0,14.142c3.566,3.565,9.154,3.875,13.071,0.93V492h-5.257c-5.523,0-10,4.477-10,10s4.477,10,10,10
			h30.234c5.523,0,10-4.477,10-10S424.501,492.001,418.978,492.001z"/>
	</g>
</g>
<g>
	<g>
		<path d="M478.002,424.001c-18.748,0-34,15.252-34,34v20c0,18.748,15.252,34,34,34s34-15.252,34-34v-20
			C512.002,439.253,496.749,424.001,478.002,424.001z M492.002,478.001c0,7.72-6.28,14-14,14c-7.72,0-14-6.28-14-14v-20
			c0-7.72,6.28-14,14-14c7.72,0,14,6.28,14,14V478.001z"/>
	</g>
</g>
<g>
	<g>
		<path d="M418.979,68.141h-4.977v-58.14c0-4.044-2.437-7.691-6.173-9.239c-3.737-1.549-8.038-0.692-10.898,2.167l-16,16
			c-3.905,3.905-3.905,10.237,0,14.143c3.566,3.566,9.154,3.876,13.071,0.93v34.139h-5.257c-5.523,0-10,4.477-10,10s4.477,10,10,10
			h30.234c5.523,0,10-4.477,10-10S424.502,68.141,418.979,68.141z"/>
	</g>
</g>
<g>
	<g>
		<path d="M478.002,0.141c-18.748,0-34,15.252-34,34v20c0,18.748,15.252,34,34,34s34-15.252,34-34v-20
			C512.002,15.394,496.749,0.141,478.002,0.141z M492.002,54.141c0,7.72-6.28,14-14,14c-7.72,0-14-6.28-14-14v-20
			c0-7.72,6.28-14,14-14c7.72,0,14,6.28,14,14V54.141z"/>
	</g>
</g>
<g>
	<g>
		<path d="M121.1,68.141h-4.977v-58.14c0-4.044-2.437-7.691-6.173-9.239c-3.737-1.549-8.038-0.692-10.898,2.167l-16,16
			c-3.905,3.905-3.905,10.237,0,14.143c3.566,3.566,9.155,3.876,13.071,0.93v34.139h-5.257c-5.523,0-10,4.477-10,10s4.477,10,10,10
			H121.1c5.523,0,10-4.477,10-10S126.623,68.141,121.1,68.141z"/>
	</g>
</g>
<g>
	<g>
		<path d="M193.979,68.141h-4.977v-58.14c0-4.044-2.437-7.691-6.173-9.239c-3.737-1.549-8.038-0.692-10.898,2.167l-16,16
			c-3.905,3.905-3.905,10.237,0,14.143c3.566,3.566,9.154,3.876,13.071,0.93v34.139h-5.257c-5.523,0-10,4.477-10,10s4.477,10,10,10
			h30.234c5.523,0,10-4.477,10-10S199.502,68.141,193.979,68.141z"/>
	</g>
</g>
<g>
	<g>
		<path d="M34.002,0.141c-18.748,0-34,15.252-34,34v20c0,18.748,15.252,34,34,34c18.748,0,34-15.252,34-34v-20
			C68.002,15.393,52.75,0.141,34.002,0.141z M48.002,54.141c0,7.72-6.28,14-14,14c-7.72,0-14-6.28-14-14v-20c0-7.72,6.28-14,14-14
			c7.72,0,14,6.28,14,14V54.141z"/>
	</g>
</g>
<g>
	<g>
		<path d="M502.002,209.125h-4.977v-58.141c0-4.044-2.437-7.691-6.173-9.239c-3.737-1.549-8.038-0.692-10.898,2.168l-16,16
			c-3.905,3.905-3.905,10.237,0,14.142c3.566,3.565,9.154,3.875,13.071,0.93v34.139h-5.257c-5.523,0-10,4.477-10,10
			c0,5.523,4.477,10,10,10h30.234c5.523,0,10-4.477,10-10C512.002,213.601,507.525,209.125,502.002,209.125z"/>
	</g>
</g>
<g>
	<g>
		<path d="M502.002,347.661h-4.977v-58.14c0-4.044-2.437-7.691-6.173-9.239c-3.737-1.548-8.038-0.691-10.898,2.167l-16,16
			c-3.905,3.905-3.905,10.237,0,14.143c3.566,3.565,9.154,3.875,13.071,0.93v34.139h-5.257c-5.523,0-10,4.477-10,10s4.477,10,10,10
			h30.234c5.523,0,10-4.477,10-10S507.525,347.661,502.002,347.661z"/>
	</g>
</g>
<g>
	<g>
		<path d="M430.571,347.661h-4.977v-58.14c0-4.044-2.437-7.691-6.173-9.239c-3.736-1.548-8.038-0.691-10.898,2.167l-16,16
			c-3.905,3.905-3.905,10.237,0,14.143c3.566,3.565,9.155,3.875,13.071,0.93v34.139h-5.257c-5.523,0-10,4.477-10,10s4.477,10,10,10
			h30.234c5.523,0,10-4.477,10-10S436.094,347.661,430.571,347.661z"/>
	</g>
</g>
<g>
	<g>
		<path d="M407.654,141.125c-18.748,0-34,15.252-34,34v20c0,18.748,15.252,34,34,34s34-15.252,34-34v-20
			C441.654,156.378,426.402,141.125,407.654,141.125z M421.654,195.125c0,7.72-6.28,14-14,14c-7.72,0-14-6.28-14-14v-20
			c0-7.72,6.28-14,14-14c7.72,0,14,6.28,14,14V195.125z"/>
	</g>
</g>
<g>
	<g>
		<path d="M127.264,351.016h-4.977v-58.14c0-4.044-2.437-7.691-6.173-9.239c-3.737-1.549-8.038-0.692-10.898,2.167l-16,16
			c-3.905,3.905-3.905,10.237,0,14.143c3.566,3.566,9.154,3.876,13.071,0.93v34.139H97.03c-5.523,0-10,4.477-10,10s4.477,10,10,10
			h30.234c5.523,0,10-4.477,10-10S132.787,351.016,127.264,351.016z"/>
	</g>
</g>
<g>
	<g>
		<path d="M34.002,283.016c-18.748,0-34,15.252-34,34v20c0,18.748,15.252,34,34,34c18.748,0,34-15.252,34-34v-20
			C68.002,298.268,52.75,283.016,34.002,283.016z M48.002,337.017c0,7.719-6.28,14-14,14c-7.72,0-14-6.28-14-14v-20
			c0-7.719,6.28-14,14-14c7.72,0,14,6.28,14,14V337.017z"/>
	</g>
</g>
<g>
</g>
<g>
</g>
<g>
</g>
<g>
</g>
<g>
</g>
<g>
</g>
<g>
</g>
<g>
</g>
<g>
</g>
<g>
</g>
<g>
</g>
<g>
</g>
<g>
</g>
<g>
</g>
<g>
</g>
</svg>
